<svg xmlns="http://www.w3.org/2000/svg" viewBox="0 0 64 64" role="img" aria-label="CAR CRM">
  <defs>
    <linearGradient id="bg" x1="12" y1="4" x2="56" y2="60" gradientUnits="userSpaceOnUse">
      <stop offset="0" stop-color="#1d4ed8"/>
      <stop offset="0.55" stop-color="#2563eb"/>
      <stop offset="1" stop-color="#0f172a"/>
    </linearGradient>
    <linearGradient id="glass" x1="18" y1="18" x2="46" y2="42" gradientUnits="userSpaceOnUse">
      <stop offset="0" stop-color="#e0f2fe"/>
      <stop offset="1" stop-color="#93c5fd"/>
    </linearGradient>
    <filter id="shadow" x="-20%" y="-20%" width="140%" height="140%">
      <feDropShadow dx="0" dy="3" stdDeviation="3" flood-color="#020617" flood-opacity="0.32"/>
    </filter>
  </defs>
  <rect width="64" height="64" rx="16" fill="url(#bg)"/>
  <path d="M15 39.5 19.8 27c1.2-3.1 3.9-5 7.1-5h10.2c3.2 0 5.9 1.9 7.1 5L49 39.5" fill="none" stroke="#f8fafc" stroke-width="5" stroke-linecap="round" stroke-linejoin="round" filter="url(#shadow)"/>
  <path d="M22.8 28.7c.7-1.8 2.1-2.7 4.1-2.7h10.2c2 0 3.4.9 4.1 2.7l2.2 5.8H20.6l2.2-5.8Z" fill="url(#glass)"/>
  <path d="M14 39h36c2.2 0 4 1.8 4 4v4c0 1.7-1.3 3-3 3H13c-1.7 0-3-1.3-3-3v-4c0-2.2 1.8-4 4-4Z" fill="#f8fafc" filter="url(#shadow)"/>
  <circle cx="21" cy="47" r="4" fill="#0f172a"/>
  <circle cx="43" cy="47" r="4" fill="#0f172a"/>
  <path d="M25 17 39 13" stroke="#facc15" stroke-width="4" stroke-linecap="round"/>
  <path d="M28 20 42 16" stroke="#ffffff" stroke-width="2" stroke-linecap="round" opacity="0.85"/>
</svg>
